<svg width="126" height="126" viewBox="0 0 126 126" fill="none" xmlns="http://www.w3.org/2000/svg">
<path d="M63.5 16C37.832 16 17 36.832 17 62.5C17 88.168 37.832 109 63.5 109C89.168 109 110 88.168 110 62.5C110 36.832 89.168 16 63.5 16ZM63.5 34.6C72.4745 34.6 79.775 41.9005 79.775 50.875C79.775 59.8495 72.4745 67.15 63.5 67.15C54.5255 67.15 47.225 59.8495 47.225 50.875C47.225 41.9005 54.5255 34.6 63.5 34.6ZM63.5 99.7C54.0605 99.7 42.9005 95.887 34.949 86.308C43.094 79.9176 53.1473 76.4444 63.5 76.4444C73.8527 76.4444 83.906 79.9176 92.051 86.308C84.0995 95.887 72.9395 99.7 63.5 99.7Z" fill="#D2D2D2"/>
</svg>
