<svg width="43" height="43" viewBox="0 0 43 43" fill="none" xmlns="http://www.w3.org/2000/svg">
<circle cx="21.5" cy="21.5" r="21.5" fill="#9A9A9A"/>
<path d="M30.8908 13.9618H29.3091L28.9137 12.7262C28.6574 12.0011 28.1819 11.3738 27.5532 10.931C26.9244 10.4882 26.1736 10.2519 25.4046 10.2549H19.0781C18.3016 10.2564 17.5451 10.5016 16.9155 10.9561C16.2858 11.4106 15.8148 12.0514 15.5689 12.788L15.1735 14.0236H13.5919C12.6088 14.0236 11.6659 14.4141 10.9707 15.1093C10.2756 15.8045 9.88501 16.7474 9.88501 17.7305V27.6155C9.88501 28.5987 10.2756 29.5415 10.9707 30.2367C11.6659 30.9319 12.6088 31.3224 13.5919 31.3224H30.8908C31.8739 31.3224 32.8168 30.9319 33.5119 30.2367C34.2071 29.5415 34.5977 28.5987 34.5977 27.6155V17.7305C34.6059 17.2385 34.516 16.7498 34.3334 16.2929C34.1508 15.836 33.8791 15.4201 33.534 15.0693C33.189 14.7185 32.7776 14.4399 32.3237 14.2498C31.8699 14.0596 31.3828 13.9617 30.8908 13.9618ZM32.1264 27.5538C32.1264 27.8815 31.9962 28.1958 31.7645 28.4275C31.5328 28.6592 31.2185 28.7894 30.8908 28.7894H13.5919C13.2642 28.7894 12.9499 28.6592 12.7182 28.4275C12.4865 28.1958 12.3563 27.8815 12.3563 27.5538V17.6687C12.3563 17.341 12.4865 17.0267 12.7182 16.795C12.9499 16.5633 13.2642 16.4331 13.5919 16.4331H16.0632C16.3326 16.4471 16.5993 16.3726 16.8224 16.2209C17.0455 16.0692 17.2128 15.8486 17.2988 15.5928L17.966 13.5664C18.0489 13.321 18.2069 13.1078 18.4175 12.957C18.6281 12.8063 18.8809 12.7255 19.1399 12.7262H25.4663C25.7254 12.7255 25.9781 12.8063 26.1887 12.957C26.3994 13.1078 26.5573 13.321 26.6402 13.5664L27.3074 15.5928C27.3867 15.8285 27.5353 16.0348 27.7337 16.1847C27.9321 16.3346 28.1711 16.4212 28.4195 16.4331H30.8908C31.2185 16.4331 31.5328 16.5633 31.7645 16.795C31.9962 17.0267 32.1264 17.341 32.1264 17.6687V27.5538ZM22.2413 16.4331C21.2638 16.4331 20.3082 16.7229 19.4954 17.266C18.6826 17.8091 18.0491 18.581 17.675 19.4842C17.3009 20.3873 17.2031 21.3811 17.3938 22.3398C17.5845 23.2986 18.0552 24.1793 18.7464 24.8705C19.4377 25.5617 20.3183 26.0324 21.2771 26.2232C22.2358 26.4139 23.2296 26.316 24.1328 25.9419C25.0359 25.5678 25.8078 24.9343 26.3509 24.1215C26.894 23.3087 27.1839 22.3531 27.1839 21.3756C27.1839 20.0648 26.6631 18.8076 25.7362 17.8807C24.8093 16.9538 23.5522 16.4331 22.2413 16.4331ZM22.2413 23.8469C21.7526 23.8469 21.2748 23.7019 20.8684 23.4304C20.462 23.1588 20.1452 22.7729 19.9582 22.3213C19.7711 21.8697 19.7222 21.3729 19.8176 20.8935C19.9129 20.4141 20.1483 19.9738 20.4939 19.6282C20.8395 19.2825 21.2798 19.0472 21.7592 18.9518C22.2386 18.8565 22.7355 18.9054 23.187 19.0924C23.6386 19.2795 24.0246 19.5962 24.2961 20.0026C24.5677 20.409 24.7126 20.8868 24.7126 21.3756C24.7126 22.031 24.4522 22.6596 23.9888 23.123C23.5253 23.5865 22.8968 23.8469 22.2413 23.8469Z" fill="white"/>
</svg>
