<svg width="160" height="160" viewBox="0 0 160 160" fill="none" xmlns="http://www.w3.org/2000/svg">
<path d="M79.5 12C42.24 12 12 42.24 12 79.5C12 116.76 42.24 147 79.5 147C116.76 147 147 116.76 147 79.5C147 42.24 116.76 12 79.5 12ZM79.5 39C92.5275 39 103.125 49.5975 103.125 62.625C103.125 75.6525 92.5275 86.25 79.5 86.25C66.4725 86.25 55.875 75.6525 55.875 62.625C55.875 49.5975 66.4725 39 79.5 39ZM79.5 133.5C65.7975 133.5 49.5975 127.965 38.055 114.06C49.8783 104.784 64.4719 99.7419 79.5 99.7419C94.5281 99.7419 109.122 104.784 120.945 114.06C109.402 127.965 93.2025 133.5 79.5 133.5Z" fill="#D2D2D2"/>
</svg>
