<svg width="160" height="160" viewBox="0 0 160 160" fill="none" xmlns="http://www.w3.org/2000/svg">
<path d="M79.5 12C42.24 12 12 42.24 12 79.5C12 116.76 42.24 147 79.5 147C116.76 147 147 116.76 147 79.5C147 42.24 116.76 12 79.5 12ZM79.5 39C92.5275 39 103.125 49.5975 103.125 62.625C103.125 75.6525 92.5275 86.25 79.5 86.25C66.4725 86.25 55.875 75.6525 55.875 62.625C55.875 49.5975 66.4725 39 79.5 39ZM79.5 133.5C65.7975 133.5 49.5975 127.965 38.055 114.06C49.8783 104.784 64.4719 99.7419 79.5 99.7419C94.5281 99.7419 109.122 104.784 120.945 114.06C109.402 127.965 93.2025 133.5 79.5 133.5Z" fill="#D2D2D2"/>
<circle cx="130.5" cy="130.5" r="21.5" fill="#9A9A9A"/>
<path d="M139.891 122.963H138.309L137.914 121.727C137.657 121.002 137.182 120.375 136.553 119.932C135.924 119.489 135.174 119.253 134.405 119.256H128.078C127.302 119.257 126.545 119.503 125.915 119.957C125.286 120.412 124.815 121.052 124.569 121.789L124.174 123.025H122.592C121.609 123.025 120.666 123.415 119.971 124.11C119.276 124.805 118.885 125.748 118.885 126.731V136.617C118.885 137.6 119.276 138.543 119.971 139.238C120.666 139.933 121.609 140.323 122.592 140.323H139.891C140.874 140.323 141.817 139.933 142.512 139.238C143.207 138.543 143.598 137.6 143.598 136.617V126.731C143.606 126.239 143.516 125.751 143.333 125.294C143.151 124.837 142.879 124.421 142.534 124.07C142.189 123.719 141.778 123.441 141.324 123.251C140.87 123.061 140.383 122.963 139.891 122.963ZM141.126 136.555C141.126 136.882 140.996 137.197 140.764 137.428C140.533 137.66 140.218 137.79 139.891 137.79H122.592C122.264 137.79 121.95 137.66 121.718 137.428C121.486 137.197 121.356 136.882 121.356 136.555V126.67C121.356 126.342 121.486 126.028 121.718 125.796C121.95 125.564 122.264 125.434 122.592 125.434H125.063C125.333 125.448 125.599 125.374 125.822 125.222C126.046 125.07 126.213 124.85 126.299 124.594L126.966 122.567C127.049 122.322 127.207 122.109 127.418 121.958C127.628 121.807 127.881 121.726 128.14 121.727H134.466C134.725 121.726 134.978 121.807 135.189 121.958C135.399 122.109 135.557 122.322 135.64 122.567L136.307 124.594C136.387 124.83 136.535 125.036 136.734 125.186C136.932 125.336 137.171 125.422 137.419 125.434H139.891C140.218 125.434 140.533 125.564 140.764 125.796C140.996 126.028 141.126 126.342 141.126 126.67V136.555ZM131.241 125.434C130.264 125.434 129.308 125.724 128.495 126.267C127.683 126.81 127.049 127.582 126.675 128.485C126.301 129.388 126.203 130.382 126.394 131.341C126.584 132.3 127.055 133.18 127.746 133.871C128.438 134.563 129.318 135.033 130.277 135.224C131.236 135.415 132.23 135.317 133.133 134.943C134.036 134.569 134.808 133.935 135.351 133.122C135.894 132.31 136.184 131.354 136.184 130.377C136.184 129.066 135.663 127.809 134.736 126.882C133.809 125.955 132.552 125.434 131.241 125.434ZM131.241 132.848C130.753 132.848 130.275 132.703 129.868 132.431C129.462 132.16 129.145 131.774 128.958 131.322C128.771 130.871 128.722 130.374 128.818 129.894C128.913 129.415 129.148 128.975 129.494 128.629C129.839 128.284 130.28 128.048 130.759 127.953C131.239 127.857 131.735 127.906 132.187 128.093C132.639 128.28 133.025 128.597 133.296 129.004C133.568 129.41 133.713 129.888 133.713 130.377C133.713 131.032 133.452 131.661 132.989 132.124C132.525 132.587 131.897 132.848 131.241 132.848Z" fill="white"/>
</svg>
