<svg width="14" height="17" viewBox="0 0 14 17" fill="none" xmlns="http://www.w3.org/2000/svg">
<path d="M5.96733 10.3125H8.08381L9.6179 12.3224L10.2855 13.1463L12.7003 16.3139H10.5128L8.90057 14.2045L8.375 13.4801L5.96733 10.3125ZM13.1974 7.72727C13.1974 9.27557 12.9134 10.6084 12.3452 11.7259C11.7817 12.8385 11.0076 13.6955 10.0227 14.2969C9.03788 14.8982 7.92045 15.1989 6.67045 15.1989C5.41572 15.1989 4.29593 14.8982 3.31108 14.2969C2.33097 13.6955 1.55682 12.8385 0.988636 11.7259C0.425189 10.6084 0.143466 9.27557 0.143466 7.72727C0.143466 6.17898 0.425189 4.84848 0.988636 3.7358C1.55682 2.61837 2.33097 1.759 3.31108 1.15767C4.29593 0.556344 5.41572 0.255681 6.67045 0.255681C7.92045 0.255681 9.03788 0.556344 10.0227 1.15767C11.0076 1.759 11.7817 2.61837 12.3452 3.7358C12.9134 4.84848 13.1974 6.17898 13.1974 7.72727ZM11.1094 7.72727C11.1094 6.52936 10.9152 5.52083 10.527 4.7017C10.1387 3.87784 9.60843 3.25521 8.93608 2.83381C8.26847 2.40767 7.51326 2.1946 6.67045 2.1946C5.82765 2.1946 5.07008 2.40767 4.39773 2.83381C3.73011 3.25521 3.20218 3.87784 2.81392 4.7017C2.42566 5.52083 2.23153 6.52936 2.23153 7.72727C2.23153 8.92519 2.42566 9.93608 2.81392 10.7599C3.20218 11.5791 3.73011 12.2017 4.39773 12.6278C5.07008 13.0492 5.82765 13.2599 6.67045 13.2599C7.51326 13.2599 8.26847 13.0492 8.93608 12.6278C9.60843 12.2017 10.1387 11.5791 10.527 10.7599C10.9152 9.93608 11.1094 8.92519 11.1094 7.72727Z" fill="#E36969"/>
</svg>
