<svg width="25" height="25" viewBox="0 0 25 25" fill="none" xmlns="http://www.w3.org/2000/svg">
<path d="M17.5 12.8125C17.5 12.3981 17.6646 12.0007 17.9576 11.7076C18.2507 11.4146 18.6481 11.25 19.0625 11.25C19.4769 11.25 19.8743 11.4146 20.1674 11.7076C20.4604 12.0007 20.625 12.3981 20.625 12.8125C20.625 13.2269 20.4604 13.6243 20.1674 13.9174C19.8743 14.2104 19.4769 14.375 19.0625 14.375C18.6481 14.375 18.2507 14.2104 17.9576 13.9174C17.6646 13.6243 17.5 13.2269 17.5 12.8125ZM11.25 12.8125C11.25 12.3981 11.4146 12.0007 11.7076 11.7076C12.0007 11.4146 12.3981 11.25 12.8125 11.25C13.2269 11.25 13.6243 11.4146 13.9174 11.7076C14.2104 12.0007 14.375 12.3981 14.375 12.8125C14.375 13.2269 14.2104 13.6243 13.9174 13.9174C13.6243 14.2104 13.2269 14.375 12.8125 14.375C12.3981 14.375 12.0007 14.2104 11.7076 13.9174C11.4146 13.6243 11.25 13.2269 11.25 12.8125ZM5 12.8125C5 12.3981 5.16462 12.0007 5.45765 11.7076C5.75067 11.4146 6.1481 11.25 6.5625 11.25C6.9769 11.25 7.37433 11.4146 7.66735 11.7076C7.96038 12.0007 8.125 12.3981 8.125 12.8125C8.125 13.2269 7.96038 13.6243 7.66735 13.9174C7.37433 14.2104 6.9769 14.375 6.5625 14.375C6.1481 14.375 5.75067 14.2104 5.45765 13.9174C5.16462 13.6243 5 13.2269 5 12.8125Z" fill="#BCBCBC"/>
</svg>
