<svg width="31" height="31" viewBox="0 0 31 31" fill="none" xmlns="http://www.w3.org/2000/svg">
<path d="M9.52514 13.8042C10.4184 13.7 11.1093 13.8813 11.3563 14.0188C11.4657 14.085 11.5859 14.1258 11.7097 14.139C11.8336 14.1521 11.9584 14.1371 12.077 14.0951C12.1956 14.053 12.3054 13.9847 12.4 13.8941C12.4946 13.8035 12.5719 13.6925 12.6276 13.5677C12.6832 13.443 12.7159 13.3069 12.7237 13.1677C12.7316 13.0285 12.7144 12.8889 12.6733 12.7573C12.6322 12.6256 12.5679 12.5046 12.4842 12.4013C12.4006 12.2981 12.2993 12.2148 12.1864 12.1562C11.5346 11.7896 10.463 11.6 9.332 11.7333C7.54914 11.9417 5.71429 13.6792 5.71429 16.5187C5.71429 19.4042 7.67171 21.3104 9.98571 21.3104C11.0629 21.3104 12.0286 20.7437 12.5801 20.1583C13.0667 19.6417 13.1429 18.9562 13.1429 18.5271V16.5187C13.1429 16.2425 13.045 15.9775 12.8709 15.7822C12.6967 15.5868 12.4606 15.4771 12.2143 15.4771H10.7156C10.4693 15.4771 10.2331 15.5868 10.059 15.7822C9.88483 15.9775 9.787 16.2425 9.787 16.5187C9.787 16.795 9.88483 17.06 10.059 17.2553C10.2331 17.4507 10.4693 17.5604 10.7156 17.5604H11.2857V18.5271C11.2859 18.5767 11.2822 18.6262 11.2746 18.675C10.9127 19.0167 10.4585 19.2113 9.98571 19.2271C8.62814 19.2271 7.57143 18.175 7.57143 16.5187C7.57143 14.8146 8.62443 13.9104 9.52514 13.8042ZM16.8571 12.7708C16.8571 12.4946 16.7593 12.2296 16.5852 12.0343C16.411 11.8389 16.1748 11.7292 15.9286 11.7292C15.6823 11.7292 15.4461 11.8389 15.272 12.0343C15.0978 12.2296 15 12.4946 15 12.7708V20.2708C15 20.5471 15.0978 20.8121 15.272 21.0074C15.4461 21.2028 15.6823 21.3125 15.9286 21.3125C16.1748 21.3125 16.411 21.2028 16.5852 21.0074C16.7593 20.8121 16.8571 20.5471 16.8571 20.2708V12.7708ZM19.6429 11.7292C19.3966 11.7292 19.1604 11.8389 18.9863 12.0343C18.8121 12.2296 18.7143 12.4946 18.7143 12.7708V20.2708C18.7143 20.5471 18.8121 20.8121 18.9863 21.0074C19.1604 21.2028 19.3966 21.3125 19.6429 21.3125C19.8891 21.3125 20.1253 21.2028 20.2995 21.0074C20.4736 20.8121 20.5714 20.5471 20.5714 20.2708V17.5542L22.4341 17.5417C22.6804 17.54 22.916 17.4287 23.0891 17.2321C23.2622 17.0356 23.3586 16.77 23.3571 16.4937C23.3557 16.2175 23.2564 15.9532 23.0812 15.759C22.906 15.5648 22.6693 15.4567 22.423 15.4583L20.5714 15.4708V13.8104H23.3571C23.6034 13.8104 23.8396 13.7007 24.0137 13.5053C24.1879 13.31 24.2857 13.045 24.2857 12.7688C24.2857 12.4925 24.1879 12.2275 24.0137 12.0322C23.8396 11.8368 23.6034 11.7271 23.3571 11.7271L19.6429 11.7292ZM6.64286 4C5.41149 4 4.23057 4.54873 3.35986 5.52549C2.48916 6.50224 2 7.827 2 9.20833V23.7917C2 25.173 2.48916 26.4978 3.35986 27.4745C4.23057 28.4513 5.41149 29 6.64286 29H23.3571C24.5885 29 25.7694 28.4513 26.6401 27.4745C27.5108 26.4978 28 25.173 28 23.7917V9.20833C28 7.827 27.5108 6.50224 26.6401 5.52549C25.7694 4.54873 24.5885 4 23.3571 4H6.64286ZM3.85714 9.20833C3.85714 8.37953 4.15064 7.58468 4.67306 6.99862C5.19548 6.41257 5.90404 6.08333 6.64286 6.08333H23.3571C24.096 6.08333 24.8045 6.41257 25.3269 6.99862C25.8494 7.58468 26.1429 8.37953 26.1429 9.20833V23.7917C26.1429 24.6205 25.8494 25.4153 25.3269 26.0014C24.8045 26.5874 24.096 26.9167 23.3571 26.9167H6.64286C5.90404 26.9167 5.19548 26.5874 4.67306 26.0014C4.15064 25.4153 3.85714 24.6205 3.85714 23.7917V9.20833Z" fill="#FFC328"/>
</svg>
