<svg width="25" height="25" viewBox="0 0 25 25" fill="none" xmlns="http://www.w3.org/2000/svg">
<path d="M12.5 5.72927L11.9375 6.27094C12.0104 6.34655 12.0977 6.40669 12.1944 6.44777C12.291 6.48885 12.395 6.51002 12.5 6.51002C12.605 6.51002 12.7089 6.48885 12.8056 6.44777C12.9022 6.40669 12.9896 6.34655 13.0625 6.27094L12.5 5.72927ZM7.2927 17.1043C7.13247 16.9725 6.92645 16.9098 6.71996 16.9299C6.51348 16.95 6.32344 17.0513 6.19166 17.2116C6.05988 17.3718 5.99715 17.5778 6.01727 17.7843C6.0374 17.9908 6.13872 18.1808 6.29895 18.3126L7.2927 17.1043ZM2.43958 13.9699C2.48882 14.0599 2.55532 14.1393 2.63526 14.2037C2.7152 14.268 2.80703 14.3159 2.9055 14.3447C3.00397 14.3736 3.10715 14.3827 3.20915 14.3716C3.31116 14.3606 3.40998 14.3296 3.49999 14.2803C3.59001 14.2311 3.66943 14.1646 3.73375 14.0846C3.79806 14.0047 3.846 13.9129 3.87482 13.8144C3.90365 13.7159 3.9128 13.6127 3.90174 13.5107C3.89069 13.4087 3.85966 13.3099 3.81041 13.2199L2.43958 13.9699ZM2.86458 9.51782C2.86458 7.27823 4.1302 5.39907 5.85833 4.60844C7.5375 3.84073 9.79375 4.04386 11.9375 6.27094L13.0625 5.18865C10.5208 2.54594 7.56666 2.10948 5.20833 3.18761C2.90208 4.24282 1.30208 6.69282 1.30208 9.51782H2.86458ZM8.85104 20.3126C9.38541 20.7334 9.95833 21.1814 10.5385 21.5209C11.1187 21.8595 11.7812 22.1355 12.5 22.1355V20.573C12.1771 20.573 11.7979 20.448 11.3271 20.172C10.8552 19.897 10.3667 19.5178 9.81875 19.0855L8.85104 20.3126ZM16.149 20.3126C17.6344 19.1407 19.5344 17.7991 21.024 16.1209C22.5417 14.4126 23.6979 12.2949 23.6979 9.51782H22.1354C22.1354 11.8074 21.1979 13.5709 19.8562 15.0834C18.4865 16.6251 16.7604 17.8407 15.1812 19.0855L16.149 20.3126ZM23.6979 9.51782C23.6979 6.69282 22.099 4.24282 19.7917 3.18761C17.4333 2.10948 14.4812 2.54594 11.9375 5.18761L13.0625 6.27094C15.2062 4.0449 17.4625 3.84073 19.1417 4.60844C20.8698 5.39907 22.1354 7.27719 22.1354 9.51782H23.6979ZM15.1812 19.0855C14.6333 19.5178 14.1448 19.897 13.6729 20.172C13.2021 20.447 12.8229 20.573 12.5 20.573V22.1355C13.2187 22.1355 13.8812 21.8595 14.4615 21.5209C15.0427 21.1814 15.6146 20.7334 16.149 20.3126L15.1812 19.0855ZM9.81875 19.0855C8.98958 18.4324 8.14687 17.8074 7.2927 17.1043L6.29895 18.3126C7.16354 19.0241 8.07812 19.7032 8.85104 20.3126L9.81875 19.0855ZM3.81041 13.2209C3.18292 12.088 2.85722 10.8129 2.86458 9.51782H1.30208C1.30208 11.2241 1.73958 12.6897 2.43958 13.9699L3.81041 13.2209Z" fill="#A4A4A4"/>
</svg>
