<svg width="25" height="25" viewBox="0 0 25 25" fill="none" xmlns="http://www.w3.org/2000/svg">
<path d="M12.5 5.72903L11.9375 6.2707C12.0104 6.34631 12.0977 6.40645 12.1944 6.44753C12.291 6.48861 12.395 6.50978 12.5 6.50978C12.605 6.50978 12.7089 6.48861 12.8056 6.44753C12.9022 6.40645 12.9896 6.34631 13.0625 6.2707L12.5 5.72903ZM7.2927 17.104C7.13247 16.9722 6.92645 16.9095 6.71996 16.9296C6.51348 16.9498 6.32344 17.0511 6.19166 17.2113C6.05988 17.3716 5.99715 17.5776 6.01727 17.7841C6.0374 17.9905 6.13872 18.1806 6.29895 18.3124L7.2927 17.104ZM2.43958 13.9697C2.48882 14.0597 2.55532 14.1391 2.63526 14.2034C2.7152 14.2677 2.80703 14.3157 2.9055 14.3445C3.00397 14.3733 3.10715 14.3825 3.20915 14.3714C3.31116 14.3604 3.40998 14.3293 3.49999 14.2801C3.59001 14.2308 3.66943 14.1643 3.73375 14.0844C3.79806 14.0044 3.846 13.9126 3.87482 13.8142C3.90365 13.7157 3.9128 13.6125 3.90174 13.5105C3.89069 13.4085 3.85966 13.3097 3.81041 13.2197L2.43958 13.9697ZM2.86458 9.51757C2.86458 7.27799 4.1302 5.39882 5.85833 4.6082C7.5375 3.84049 9.79375 4.04361 11.9375 6.2707L13.0625 5.18841C10.5208 2.5457 7.56666 2.10924 5.20833 3.18736C2.90208 4.24257 1.30208 6.69257 1.30208 9.51757H2.86458ZM8.85104 20.3124C9.38541 20.7332 9.95833 21.1811 10.5385 21.5207C11.1187 21.8592 11.7812 22.1353 12.5 22.1353V20.5728C12.1771 20.5728 11.7979 20.4478 11.3271 20.1717C10.8552 19.8967 10.3667 19.5176 9.81875 19.0853L8.85104 20.3124ZM16.149 20.3124C17.6344 19.1405 19.5344 17.7988 21.024 16.1207C22.5417 14.4124 23.6979 12.2947 23.6979 9.51757H22.1354C22.1354 11.8072 21.1979 13.5707 19.8562 15.0832C18.4865 16.6249 16.7604 17.8405 15.1812 19.0853L16.149 20.3124ZM23.6979 9.51757C23.6979 6.69257 22.099 4.24257 19.7917 3.18736C17.4333 2.10924 14.4812 2.5457 11.9375 5.18736L13.0625 6.2707C15.2062 4.04466 17.4625 3.84049 19.1417 4.6082C20.8698 5.39882 22.1354 7.27695 22.1354 9.51757H23.6979ZM15.1812 19.0853C14.6333 19.5176 14.1448 19.8967 13.6729 20.1717C13.2021 20.4467 12.8229 20.5728 12.5 20.5728V22.1353C13.2187 22.1353 13.8812 21.8592 14.4615 21.5207C15.0427 21.1811 15.6146 20.7332 16.149 20.3124L15.1812 19.0853ZM9.81875 19.0853C8.98958 18.4322 8.14687 17.8072 7.2927 17.104L6.29895 18.3124C7.16354 19.0238 8.07812 19.703 8.85104 20.3124L9.81875 19.0853ZM3.81041 13.2207C3.18292 12.0878 2.85722 10.8126 2.86458 9.51757H1.30208C1.30208 11.2238 1.73958 12.6894 2.43958 13.9697L3.81041 13.2207Z" fill="#A4A4A4"/>
</svg>
