<svg width="30" height="30" viewBox="0 0 30 30" fill="none" xmlns="http://www.w3.org/2000/svg">
<path d="M3.75 22.5V7.75C3.75 6.35 3.75 5.65 4.0225 5.115C4.2625 4.64375 4.64375 4.2625 5.115 4.0225C5.65 3.75 6.35 3.75 7.75 3.75H22.25C23.65 3.75 24.35 3.75 24.885 4.0225C25.3554 4.26218 25.7378 4.64462 25.9775 5.115C26.25 5.64875 26.25 6.34875 26.25 7.74625V22.2537C26.25 22.86 26.25 23.335 26.2275 23.7212M3.75 22.5C3.75 23.735 3.76625 24.3825 4.0225 24.8837C4.2625 25.355 4.64375 25.7375 5.115 25.9775C5.64875 26.25 6.34875 26.25 7.74625 26.25H22.255C23.6525 26.25 24.3513 26.25 24.885 25.9775C25.355 25.7375 25.7375 25.355 25.9775 24.8837C26.1312 24.5812 26.1988 24.2262 26.2275 23.7212M3.75 22.5L9.71 15.5475L9.71125 15.545C10.24 14.9287 10.505 14.62 10.8187 14.5075C11.0945 14.4099 11.3957 14.4121 11.67 14.5138C11.9825 14.63 12.245 14.9425 12.765 15.5675L16.1038 19.5738C16.5863 20.1538 16.8288 20.4437 17.1238 20.5612C17.3835 20.6634 17.67 20.6758 17.9375 20.5962C18.2425 20.5062 18.5125 20.2375 19.0488 19.7012L19.67 19.08C20.2163 18.5325 20.49 18.26 20.8 18.17C21.0718 18.0912 21.3624 18.1076 21.6237 18.2162C21.9212 18.34 22.1625 18.6413 22.6463 19.2438L26.2275 23.7212M26.2275 23.7212L26.25 23.75M18.75 11.25C18.4185 11.25 18.1005 11.1183 17.8661 10.8839C17.6317 10.6495 17.5 10.3315 17.5 10C17.5 9.66848 17.6317 9.35054 17.8661 9.11612C18.1005 8.8817 18.4185 8.75 18.75 8.75C19.0815 8.75 19.3995 8.8817 19.6339 9.11612C19.8683 9.35054 20 9.66848 20 10C20 10.3315 19.8683 10.6495 19.6339 10.8839C19.3995 11.1183 19.0815 11.25 18.75 11.25Z" stroke="#FFC328" stroke-width="2.5" stroke-linecap="round" stroke-linejoin="round"/>
</svg>
