<svg width="110" height="110" viewBox="0 0 110 110" fill="none" xmlns="http://www.w3.org/2000/svg">
<path d="M55 0.833313C25.1 0.833313 0.833374 25.1 0.833374 55C0.833374 84.9 25.1 109.167 55 109.167C84.9 109.167 109.167 84.9 109.167 55C109.167 25.1 84.9 0.833313 55 0.833313ZM55 22.5C65.4542 22.5 73.9584 31.0041 73.9584 41.4583C73.9584 51.9125 65.4542 60.4166 55 60.4166C44.5459 60.4166 36.0417 51.9125 36.0417 41.4583C36.0417 31.0041 44.5459 22.5 55 22.5ZM55 98.3333C44.0042 98.3333 31.0042 93.8916 21.7417 82.7333C31.2296 75.2893 42.9405 71.2435 55 71.2435C67.0596 71.2435 78.7705 75.2893 88.2584 82.7333C78.9959 93.8916 65.9959 98.3333 55 98.3333Z" fill="#D8D8D8"/>
</svg>
