<svg width="37" height="37" viewBox="0 0 37 37" fill="none" xmlns="http://www.w3.org/2000/svg">
<path d="M21.7791 21.7791L9.834 27.336L15.3909 15.3909L27.336 9.834M18.585 4C16.6697 4 14.7731 4.37725 13.0036 5.11022C11.234 5.84318 9.62619 6.91751 8.27185 8.27185C5.53663 11.0071 4 14.7168 4 18.585C4 22.4532 5.53663 26.1629 8.27185 28.8982C9.62619 30.2525 11.234 31.3268 13.0036 32.0598C14.7731 32.7927 16.6697 33.17 18.585 33.17C22.4532 33.17 26.1629 31.6334 28.8982 28.8982C31.6334 26.1629 33.17 22.4532 33.17 18.585C33.17 16.6697 32.7927 14.7731 32.0598 13.0036C31.3268 11.234 30.2525 9.62619 28.8982 8.27185C27.5438 6.91751 25.936 5.84318 24.1664 5.11022C22.3969 4.37725 20.5003 4 18.585 4ZM18.585 16.9806C18.1595 16.9806 17.7514 17.1497 17.4506 17.4506C17.1497 17.7514 16.9806 18.1595 16.9806 18.585C16.9806 19.0105 17.1497 19.4186 17.4506 19.7194C17.7514 20.0203 18.1595 20.1894 18.585 20.1894C19.0105 20.1894 19.4186 20.0203 19.7194 19.7194C20.0203 19.4186 20.1894 19.0105 20.1894 18.585C20.1894 18.1595 20.0203 17.7514 19.7194 17.4506C19.4186 17.1497 19.0105 16.9806 18.585 16.9806Z" fill="#A0A0A0"/>
</svg>
