<svg width="39" height="39" viewBox="0 0 39 39" fill="none" xmlns="http://www.w3.org/2000/svg">
<path d="M31.6875 4.875H7.3125C6.66603 4.875 6.04605 5.13181 5.58893 5.58893C5.13181 6.04605 4.875 6.66603 4.875 7.3125V31.6875C4.875 32.334 5.13181 32.954 5.58893 33.4111C6.04605 33.8682 6.66603 34.125 7.3125 34.125H31.6875C32.334 34.125 32.954 33.8682 33.4111 33.4111C33.8682 32.954 34.125 32.334 34.125 31.6875V7.3125C34.125 6.66603 33.8682 6.04605 33.4111 5.58893C32.954 5.13181 32.334 4.875 31.6875 4.875ZM9.75 10.9688H29.25C29.5732 10.9688 29.8832 11.0972 30.1118 11.3257C30.3403 11.5543 30.4688 11.8643 30.4688 12.1875C30.4688 12.5107 30.3403 12.8207 30.1118 13.0493C29.8832 13.2778 29.5732 13.4062 29.25 13.4062H9.75C9.42677 13.4062 9.11677 13.2778 8.88821 13.0493C8.65965 12.8207 8.53125 12.5107 8.53125 12.1875C8.53125 11.8643 8.65965 11.5543 8.88821 11.3257C9.11677 11.0972 9.42677 10.9688 9.75 10.9688ZM9.75 18.2812H14.625C14.9482 18.2812 15.2582 18.4097 15.4868 18.6382C15.7153 18.8668 15.8438 19.1768 15.8438 19.5C15.8438 19.8232 15.7153 20.1332 15.4868 20.3618C15.2582 20.5903 14.9482 20.7188 14.625 20.7188H9.75C9.42677 20.7188 9.11677 20.5903 8.88821 20.3618C8.65965 20.1332 8.53125 19.8232 8.53125 19.5C8.53125 19.1768 8.65965 18.8668 8.88821 18.6382C9.11677 18.4097 9.42677 18.2812 9.75 18.2812ZM15.8438 28.0312H9.75C9.42677 28.0312 9.11677 27.9028 8.88821 27.6743C8.65965 27.4457 8.53125 27.1357 8.53125 26.8125C8.53125 26.4893 8.65965 26.1793 8.88821 25.9507C9.11677 25.7222 9.42677 25.5938 9.75 25.5938H15.8438C16.167 25.5938 16.477 25.7222 16.7055 25.9507C16.9341 26.1793 17.0625 26.4893 17.0625 26.8125C17.0625 27.1357 16.9341 27.4457 16.7055 27.6743C16.477 27.9028 16.167 28.0312 15.8438 28.0312ZM30.2479 21.8293L27.527 24.0703L28.3557 27.4219C28.3847 27.5383 28.3786 27.6608 28.3382 27.7738C28.2978 27.8868 28.2249 27.9854 28.1287 28.0571C28.0232 28.1349 27.8957 28.1771 27.7646 28.1775C27.6575 28.1768 27.5524 28.1479 27.46 28.0937L24.375 26.2854L21.2946 28.0998C21.1912 28.1606 21.0722 28.1895 20.9524 28.183C20.8326 28.1764 20.7175 28.1346 20.6213 28.0629C20.5252 27.9912 20.4524 27.8926 20.412 27.7797C20.3716 27.6668 20.3654 27.5444 20.3943 27.428L21.223 24.0764L18.5021 21.8293C18.4086 21.752 18.3403 21.6484 18.306 21.532C18.2717 21.4155 18.273 21.2915 18.3097 21.1758C18.3463 21.06 18.4167 20.9579 18.5118 20.8825C18.6069 20.807 18.7224 20.7617 18.8434 20.7523L22.4357 20.475L23.8159 17.2758C23.8632 17.1668 23.9413 17.0739 24.0406 17.0087C24.1399 16.9435 24.2562 16.9088 24.375 16.9088C24.4938 16.9088 24.6101 16.9435 24.7094 17.0087C24.8087 17.0739 24.8868 17.1668 24.9341 17.2758L26.3143 20.475L29.9066 20.7523C30.0276 20.7617 30.1431 20.807 30.2382 20.8825C30.3333 20.9579 30.4037 21.06 30.4403 21.1758C30.477 21.2915 30.4783 21.4155 30.444 21.532C30.4097 21.6484 30.3414 21.752 30.2479 21.8293Z" fill="#151515"/>
</svg>
