<svg width="40" height="40" viewBox="0 0 40 40" fill="none" xmlns="http://www.w3.org/2000/svg">
<path d="M16.6667 16.6667H16.6833M23.3333 16.6667H23.35M8.33334 18.3334C8.33334 15.2392 9.5625 12.2718 11.7504 10.0838C13.9383 7.89591 16.9058 6.66675 20 6.66675C23.0942 6.66675 26.0617 7.89591 28.2496 10.0838C30.4375 12.2718 31.6667 15.2392 31.6667 18.3334V30.0001C31.7455 30.6291 31.6207 31.2668 31.3107 31.8197C31.0007 32.3726 30.5218 32.8117 29.9441 33.0726C29.3663 33.3335 28.7202 33.4025 28.1004 33.2695C27.4807 33.1365 26.9198 32.8084 26.5 32.3334C26.2428 32.0043 25.914 31.7382 25.5386 31.5551C25.1632 31.3721 24.751 31.2769 24.3333 31.2769C23.9157 31.2769 23.5035 31.3721 23.1281 31.5551C22.7527 31.7382 22.4239 32.0043 22.1667 32.3334C21.9095 32.6625 21.5807 32.9286 21.2053 33.1117C20.8298 33.2947 20.4177 33.3899 20 33.3899C19.5823 33.3899 19.1702 33.2947 18.7947 33.1117C18.4193 32.9286 18.0905 32.6625 17.8333 32.3334C17.5761 32.0043 17.2473 31.7382 16.8719 31.5551C16.4965 31.3721 16.0843 31.2769 15.6667 31.2769C15.249 31.2769 14.8368 31.3721 14.4614 31.5551C14.086 31.7382 13.7572 32.0043 13.5 32.3334C13.0802 32.8084 12.5194 33.1365 11.8996 33.2695C11.2798 33.4025 10.6337 33.3335 10.0559 33.0726C9.47823 32.8117 8.99927 32.3726 8.68927 31.8197C8.37927 31.2668 8.25453 30.6291 8.33334 30.0001V18.3334Z" stroke="#A0A0A0" stroke-width="3.33333" stroke-linecap="round" stroke-linejoin="round"/>
</svg>
