<svg width="40" height="40" viewBox="0 0 40 40" fill="none" xmlns="http://www.w3.org/2000/svg">
<path d="M16.6667 16.6666H16.6833M23.3333 16.6666H23.35M8.33334 18.3333C8.33334 15.2391 9.5625 12.2716 11.7504 10.0837C13.9383 7.89579 16.9058 6.66663 20 6.66663C23.0942 6.66663 26.0617 7.89579 28.2496 10.0837C30.4375 12.2716 31.6667 15.2391 31.6667 18.3333V30C31.7455 30.6289 31.6207 31.2666 31.3107 31.8196C31.0007 32.3725 30.5218 32.8116 29.9441 33.0725C29.3663 33.3334 28.7202 33.4024 28.1004 33.2694C27.4807 33.1364 26.9198 32.8083 26.5 32.3333C26.2428 32.0042 25.914 31.7381 25.5386 31.555C25.1632 31.372 24.751 31.2768 24.3333 31.2768C23.9157 31.2768 23.5035 31.372 23.1281 31.555C22.7527 31.7381 22.4239 32.0042 22.1667 32.3333C21.9095 32.6624 21.5807 32.9285 21.2053 33.1116C20.8298 33.2946 20.4177 33.3898 20 33.3898C19.5823 33.3898 19.1702 33.2946 18.7947 33.1116C18.4193 32.9285 18.0905 32.6624 17.8333 32.3333C17.5761 32.0042 17.2473 31.7381 16.8719 31.555C16.4965 31.372 16.0843 31.2768 15.6667 31.2768C15.249 31.2768 14.8368 31.372 14.4614 31.555C14.086 31.7381 13.7572 32.0042 13.5 32.3333C13.0802 32.8083 12.5194 33.1364 11.8996 33.2694C11.2798 33.4024 10.6337 33.3334 10.0559 33.0725C9.47823 32.8116 8.99927 32.3725 8.68927 31.8196C8.37927 31.2666 8.25453 30.6289 8.33334 30V18.3333Z" stroke="#151515" stroke-width="3.33333" stroke-linecap="round" stroke-linejoin="round"/>
</svg>
