<svg width="39" height="39" viewBox="0 0 39 39" fill="none" xmlns="http://www.w3.org/2000/svg">
<path d="M19.5 3.25C10.53 3.25 3.25 10.53 3.25 19.5C3.25 28.47 10.53 35.75 19.5 35.75C28.47 35.75 35.75 28.47 35.75 19.5C35.75 10.53 28.47 3.25 19.5 3.25ZM19.5 9.75C22.6362 9.75 25.1875 12.3013 25.1875 15.4375C25.1875 18.5737 22.6362 21.125 19.5 21.125C16.3638 21.125 13.8125 18.5737 13.8125 15.4375C13.8125 12.3013 16.3638 9.75 19.5 9.75ZM19.5 32.5C16.2013 32.5 12.3013 31.1675 9.5225 27.82C12.3689 25.5868 15.8821 24.3731 19.5 24.3731C23.1179 24.3731 26.6311 25.5868 29.4775 27.82C26.6987 31.1675 22.7987 32.5 19.5 32.5Z" fill="#151515"/>
</svg>
