<svg width="130" height="130" viewBox="0 0 130 130" fill="none" xmlns="http://www.w3.org/2000/svg">
<path d="M65 10.8333C35.1 10.8333 10.8334 35.1 10.8334 65C10.8334 94.9 35.1 119.167 65 119.167C94.9 119.167 119.167 94.9 119.167 65C119.167 35.1 94.9 10.8333 65 10.8333ZM65 32.5C75.4542 32.5 83.9584 41.0042 83.9584 51.4583C83.9584 61.9125 75.4542 70.4167 65 70.4167C54.5459 70.4167 46.0417 61.9125 46.0417 51.4583C46.0417 41.0042 54.5459 32.5 65 32.5ZM65 108.333C54.0042 108.333 41.0042 103.892 31.7417 92.7333C41.2296 85.2893 52.9405 81.2435 65 81.2435C77.0596 81.2435 88.7705 85.2893 98.2584 92.7333C88.9959 103.892 75.9959 108.333 65 108.333Z" fill="#D8D8D8"/>
<circle cx="102" cy="99" r="20" fill="#9A9A9A"/>
<path d="M110.736 91.9885H109.264L108.896 90.8391C108.658 90.1646 108.216 89.581 107.631 89.1692C107.046 88.7573 106.347 88.5375 105.632 88.5402H99.747C99.0247 88.5416 98.321 88.7698 97.7353 89.1925C97.1496 89.6153 96.7114 90.2114 96.4827 90.8966L96.1149 92.046H94.6436C93.729 92.046 92.852 92.4093 92.2053 93.056C91.5586 93.7026 91.1953 94.5797 91.1953 95.4943V104.69C91.1953 105.604 91.5586 106.481 92.2053 107.128C92.852 107.775 93.729 108.138 94.6436 108.138H110.736C111.65 108.138 112.527 107.775 113.174 107.128C113.821 106.481 114.184 105.604 114.184 104.69V95.4943C114.191 95.0366 114.108 94.582 113.938 94.157C113.768 93.732 113.515 93.345 113.194 93.0187C112.873 92.6924 112.491 92.4333 112.069 92.2564C111.646 92.0795 111.193 91.9884 110.736 91.9885ZM111.885 104.632C111.885 104.937 111.764 105.229 111.548 105.445C111.333 105.661 111.04 105.782 110.736 105.782H94.6436C94.3387 105.782 94.0464 105.661 93.8308 105.445C93.6153 105.229 93.4942 104.937 93.4942 104.632V95.4368C93.4942 95.1319 93.6153 94.8396 93.8308 94.624C94.0464 94.4085 94.3387 94.2874 94.6436 94.2874H96.9424C97.1931 94.3004 97.4411 94.2311 97.6487 94.09C97.8562 93.9489 98.0119 93.7437 98.0919 93.5058L98.7126 91.6207C98.7897 91.3924 98.9366 91.1941 99.1325 91.0538C99.3285 90.9136 99.5635 90.8385 99.8045 90.8391H105.69C105.931 90.8385 106.166 90.9136 106.362 91.0538C106.557 91.1941 106.704 91.3924 106.782 91.6207L107.402 93.5058C107.476 93.725 107.614 93.9169 107.799 94.0563C107.983 94.1958 108.206 94.2763 108.437 94.2874H110.736C111.04 94.2874 111.333 94.4085 111.548 94.624C111.764 94.8396 111.885 95.1319 111.885 95.4368V104.632ZM102.69 94.2874C101.78 94.2874 100.891 94.557 100.135 95.0622C99.3791 95.5674 98.7898 96.2855 98.4418 97.1256C98.0939 97.9657 98.0028 98.8902 98.1802 99.782C98.3576 100.674 98.7955 101.493 99.4385 102.136C100.082 102.779 100.901 103.217 101.793 103.394C102.684 103.572 103.609 103.481 104.449 103.133C105.289 102.785 106.007 102.195 106.512 101.439C107.018 100.683 107.287 99.7944 107.287 98.8851C107.287 97.6657 106.803 96.4962 105.941 95.634C105.078 94.7718 103.909 94.2874 102.69 94.2874ZM102.69 101.184C102.235 101.184 101.79 101.049 101.412 100.796C101.034 100.544 100.74 100.185 100.566 99.7648C100.392 99.3447 100.346 98.8825 100.435 98.4366C100.524 97.9906 100.743 97.581 101.064 97.2595C101.386 96.938 101.795 96.7191 102.241 96.6304C102.687 96.5417 103.149 96.5872 103.569 96.7612C103.989 96.9352 104.348 97.2298 104.601 97.6079C104.854 97.9859 104.988 98.4304 104.988 98.8851C104.988 99.4948 104.746 100.079 104.315 100.511C103.884 100.942 103.299 101.184 102.69 101.184Z" fill="white"/>
</svg>
