<svg width="45" height="45" viewBox="0 0 45 45" fill="none" xmlns="http://www.w3.org/2000/svg">
<circle cx="22.5" cy="22.5" r="22.25" fill="white" stroke="#D3D3D3" stroke-width="0.5"/>
<path d="M32.375 22.8125C32.375 23.3303 31.9553 23.75 31.4375 23.75H27.6875C27.1697 23.75 26.75 23.3303 26.75 22.8125C26.75 22.2947 27.1697 21.875 27.6875 21.875H31.4375C31.9553 21.875 32.375 22.2947 32.375 22.8125ZM36.125 30.3125C36.125 30.8303 35.7053 31.25 35.1875 31.25H31.4375C30.9197 31.25 30.5 30.8303 30.5 30.3125C30.5 29.7947 30.9197 29.375 31.4375 29.375H35.1875C35.7053 29.375 36.125 29.7947 36.125 30.3125ZM34.25 26.5625C34.25 27.0803 33.8303 27.5 33.3125 27.5H29.5625C29.0447 27.5 28.625 27.0803 28.625 26.5625C28.625 26.0447 29.0447 25.625 29.5625 25.625H33.3125C33.8303 25.625 34.25 26.0447 34.25 26.5625Z" fill="#FFC328"/>
<path d="M23.9403 23.7502C23.9332 22.9593 23.7221 22.1835 23.3272 21.4981C22.9324 20.8127 22.3672 20.2409 21.6866 19.838C21.6866 19.838 28.3312 8.25335 28.5 8.0001C28.6688 7.74685 28.5582 7.25166 28 7.00004C27.4418 6.74842 27 7.5001 27 7.5001L19.8997 19.1808C19.0279 18.9862 18.1212 19.0131 17.2626 19.2593C16.4039 19.5055 15.6206 19.9629 14.9844 20.5899C11.4744 23.9752 11.7462 31.8896 11.7594 32.2252C11.7691 32.4673 11.8721 32.6962 12.0469 32.864C12.2216 33.0318 12.4546 33.1254 12.6969 33.1252H26.7509C26.9477 33.1252 27.1395 33.0633 27.2991 32.9483C27.4587 32.8332 27.5781 32.6708 27.6403 32.4842C27.7025 32.2975 27.7045 32.096 27.6458 31.9082C27.5871 31.7204 27.4708 31.5558 27.3134 31.4377C23.9947 28.9477 23.9403 23.8008 23.9403 23.7502ZM19.1844 20.9349C19.9347 20.9431 20.653 21.2404 21.1898 21.7647C21.7265 22.2891 22.0405 23.0003 22.0662 23.7502C22.0662 23.7858 22.0681 23.9452 22.0822 24.1899L16.5509 21.7299C16.9153 21.4295 17.3357 21.2044 17.7878 21.068C18.2399 20.9315 18.7146 20.8863 19.1844 20.9349ZM22.4844 31.2502C21.735 30.4872 21.2574 29.4989 21.125 28.4377H19.25C19.3171 29.4355 19.6288 30.4014 20.1575 31.2502H18.0734C17.6877 30.0336 17.4532 28.7741 17.375 27.5002H15.5C15.5601 28.7703 15.7693 30.029 16.1234 31.2502H13.625C13.6541 29.529 13.8969 25.7265 15.3153 23.2318L22.3775 26.3724C22.7161 28.1345 23.4395 29.8001 24.4962 31.2502H22.4844Z" fill="#FFC328"/>
</svg>
