<svg width="30" height="30" viewBox="0 0 30 30" fill="none" xmlns="http://www.w3.org/2000/svg">
<path d="M5.39862 5.39862C5.52466 5.27227 5.67439 5.17201 5.83924 5.10361C6.00408 5.03521 6.1808 5 6.35927 5C6.53774 5 6.71446 5.03521 6.87931 5.10361C7.04415 5.17201 7.19388 5.27227 7.31992 5.39862L14.5004 12.5818L21.6808 5.39862C21.8069 5.27247 21.9567 5.1724 22.1215 5.10412C22.2864 5.03585 22.463 5.00071 22.6414 5.00071C22.8198 5.00071 22.9965 5.03585 23.1613 5.10412C23.3262 5.1724 23.4759 5.27247 23.6021 5.39862C23.7282 5.52478 23.8283 5.67454 23.8966 5.83937C23.9649 6.0042 24 6.18086 24 6.35927C24 6.53768 23.9649 6.71434 23.8966 6.87917C23.8283 7.044 23.7282 7.19377 23.6021 7.31992L16.4189 14.5004L23.6021 21.6808C23.7282 21.8069 23.8283 21.9567 23.8966 22.1215C23.9649 22.2864 24 22.463 24 22.6414C24 22.8198 23.9649 22.9965 23.8966 23.1613C23.8283 23.3262 23.7282 23.4759 23.6021 23.6021C23.4759 23.7282 23.3262 23.8283 23.1613 23.8966C22.9965 23.9649 22.8198 24 22.6414 24C22.463 24 22.2864 23.9649 22.1215 23.8966C21.9567 23.8283 21.8069 23.7282 21.6808 23.6021L14.5004 16.4189L7.31992 23.6021C7.19377 23.7282 7.044 23.8283 6.87917 23.8966C6.71434 23.9649 6.53768 24 6.35927 24C6.18086 24 6.0042 23.9649 5.83937 23.8966C5.67454 23.8283 5.52478 23.7282 5.39862 23.6021C5.27247 23.4759 5.1724 23.3262 5.10412 23.1613C5.03585 22.9965 5.00071 22.8198 5.00071 22.6414C5.00071 22.463 5.03585 22.2864 5.10412 22.1215C5.1724 21.9567 5.27247 21.8069 5.39862 21.6808L12.5818 14.5004L5.39862 7.31992C5.27227 7.19388 5.17201 7.04415 5.10361 6.87931C5.03521 6.71446 5 6.53774 5 6.35927C5 6.1808 5.03521 6.00408 5.10361 5.83924C5.17201 5.67439 5.27227 5.52466 5.39862 5.39862Z" fill="#563428"/>
</svg>
