<svg width="19" height="19" viewBox="0 0 19 19" fill="none" xmlns="http://www.w3.org/2000/svg">
<path d="M9.50009 0.166687C7.65413 0.166687 5.84962 0.714077 4.31476 1.73964C2.7799 2.7652 1.58363 4.22286 0.87721 5.92831C0.170792 7.63375 -0.0140391 9.51037 0.34609 11.3209C0.706218 13.1314 1.59513 14.7944 2.90042 16.0997C4.20571 17.405 5.86875 18.2939 7.67924 18.654C9.48973 19.0141 11.3664 18.8293 13.0718 18.1229C14.7772 17.4165 16.2349 16.2202 17.2605 14.6853C18.286 13.1505 18.8334 11.346 18.8334 9.50002C18.8334 7.02467 17.8501 4.6507 16.0997 2.90036C14.3494 1.15002 11.9754 0.166687 9.50009 0.166687ZM14.1668 9.24919C14.0109 9.40168 13.8015 9.48707 13.5834 9.48707C13.3654 9.48707 13.156 9.40168 13.0001 9.24919L10.3168 6.58335V14.8317C10.3168 15.0483 10.2307 15.256 10.0776 15.4092C9.9244 15.5623 9.71668 15.6484 9.50009 15.6484C9.28349 15.6484 9.07577 15.5623 8.92262 15.4092C8.76946 15.256 8.68342 15.0483 8.68342 14.8317V6.66502L6.09925 9.24919C5.94454 9.4039 5.73471 9.49081 5.51592 9.49081C5.29713 9.49081 5.0873 9.4039 4.93259 9.24919C4.77788 9.09448 4.69096 8.88464 4.69096 8.66585C4.69096 8.44706 4.77788 8.23723 4.93259 8.08252L9.54675 3.49169L14.1668 8.09419C14.2426 8.17002 14.3028 8.26005 14.3438 8.35914C14.3849 8.45823 14.406 8.56443 14.406 8.67169C14.406 8.77894 14.3849 8.88514 14.3438 8.98423C14.3028 9.08332 14.2426 9.17335 14.1668 9.24919Z" fill="#563428"/>
</svg>
