<svg width="45" height="45" viewBox="0 0 45 45" fill="none" xmlns="http://www.w3.org/2000/svg">
<circle cx="22.5" cy="22.5" r="22.25" fill="white" stroke="#D3D3D3" stroke-width="0.5"/>
<path d="M12.6788 11.52C12.702 11.2379 12.833 10.9756 13.0446 10.7877C13.2563 10.5997 13.5322 10.5006 13.8151 10.5109C14.0979 10.5212 14.3659 10.6402 14.5634 10.843C14.7608 11.0458 14.8724 11.317 14.875 11.6V17.2175C14.875 17.4247 14.9573 17.6234 15.1038 17.7699C15.2503 17.9164 15.449 17.9988 15.6562 17.9988C15.8635 17.9988 16.0622 17.9164 16.2087 17.7699C16.3552 17.6234 16.4375 17.4247 16.4375 17.2175V11.4375C16.4375 11.1889 16.5363 10.9504 16.7121 10.7746C16.8879 10.5988 17.1264 10.5 17.375 10.5C17.6236 10.5 17.8621 10.5988 18.0379 10.7746C18.2137 10.9504 18.3125 11.1889 18.3125 11.4375V17.2175C18.3125 17.4247 18.3948 17.6234 18.5413 17.7699C18.6878 17.9164 18.8865 17.9988 19.0938 17.9988C19.301 17.9988 19.4997 17.9164 19.6462 17.7699C19.7927 17.6234 19.875 17.4247 19.875 17.2175V11.6C19.8776 11.317 19.9892 11.0458 20.1866 10.843C20.3841 10.6402 20.6521 10.5212 20.9349 10.5109C21.2178 10.5006 21.4937 10.5997 21.7054 10.7877C21.917 10.9756 22.048 11.2379 22.0712 11.52C22.125 12.285 22.375 15.9625 22.375 18C22.375 19.6875 21.5375 21.18 20.26 22.0837C19.99 22.275 19.925 22.4775 19.9313 22.58C20.085 24.9275 20.5 31.3525 20.5 32.3713C20.5 33.2001 20.1708 33.9949 19.5847 34.581C18.9987 35.167 18.2038 35.4963 17.375 35.4963C16.5462 35.4963 15.7513 35.167 15.1653 34.581C14.5792 33.9949 14.25 33.2001 14.25 32.3713C14.25 31.3512 14.665 24.9275 14.8187 22.58C14.825 22.4775 14.76 22.275 14.49 22.0837C13.8364 21.622 13.3032 21.0101 12.9351 20.2995C12.5671 19.5889 12.375 18.8003 12.375 18C12.375 15.9625 12.625 12.285 12.6788 11.52ZM24.25 17.6875C24.25 15.7813 25.0073 13.9531 26.3552 12.6052C27.7031 11.2573 29.5313 10.5 31.4375 10.5C31.6861 10.5 31.9246 10.5988 32.1004 10.7746C32.2762 10.9504 32.375 11.1889 32.375 11.4375V22.0625C32.375 22.46 32.5075 24.4312 32.6562 26.615L32.6625 26.7188C32.825 29.1038 33 31.6975 33 32.3713C33 33.2001 32.6708 33.9949 32.0847 34.581C31.4987 35.167 30.7038 35.4963 29.875 35.4963C29.0462 35.4963 28.2513 35.167 27.6653 34.581C27.0792 33.9949 26.75 33.2001 26.75 32.3713C26.75 31.7288 26.91 29.1075 27.065 26.7038C27.1425 25.49 27.2212 24.3138 27.28 23.4412L27.3087 23H26.4375C26.1502 23 25.8658 22.9434 25.6004 22.8335C25.335 22.7236 25.0938 22.5624 24.8907 22.3593C24.6876 22.1562 24.5264 21.915 24.4165 21.6496C24.3066 21.3842 24.25 21.0998 24.25 20.8125V17.6875Z" fill="#FFC328"/>
</svg>
