<svg width="76" height="64" viewBox="0 0 76 64" fill="none" xmlns="http://www.w3.org/2000/svg">
<path d="M0 20C0 8.95431 8.95431 0 20 0H79V64H20C8.9543 64 0 55.0457 0 44V20Z" fill="#563428"/>
<path d="M45.5834 14.8333H22.5834C22.075 14.8333 21.5875 15.0352 21.2281 15.3947C20.8686 15.7541 20.6667 16.2416 20.6667 16.75V47.4166C20.6667 47.925 20.8686 48.4125 21.2281 48.7719C21.5875 49.1314 22.075 49.3333 22.5834 49.3333H24.5V51.25C24.5 51.7583 24.702 52.2458 25.0614 52.6053C25.4208 52.9647 25.9084 53.1666 26.4167 53.1666C26.925 53.1666 27.4125 52.9647 27.772 52.6053C28.1314 52.2458 28.3334 51.7583 28.3334 51.25V49.3333H45.5834C47.1083 49.3333 48.5709 48.7275 49.6492 47.6492C50.7276 46.5708 51.3334 45.1083 51.3334 43.5833V20.5833C51.3334 19.0583 50.7276 17.5958 49.6492 16.5174C48.5709 15.4391 47.1083 14.8333 45.5834 14.8333ZM39.8334 45.5H24.5V18.6666H39.8334V45.5ZM47.5 43.5833C47.5 44.0916 47.2981 44.5792 46.9386 44.9386C46.5792 45.298 46.0917 45.5 45.5834 45.5H43.6667V18.6666H45.5834C46.0917 18.6666 46.5792 18.8686 46.9386 19.228C47.2981 19.5875 47.5 20.075 47.5 20.5833V43.5833Z" fill="#FFFDF7"/>
</svg>
