<svg width="45" height="45" viewBox="0 0 45 45" fill="none" xmlns="http://www.w3.org/2000/svg">
<circle cx="22.5" cy="22.5" r="22.5" fill="#563428"/>
<path d="M26 17C26.7911 17 27.5645 16.7654 28.2223 16.3259C28.8801 15.8864 29.3928 15.2616 29.6955 14.5307C29.9983 13.7998 30.0775 12.9956 29.9231 12.2196C29.7688 11.4437 29.3878 10.731 28.8284 10.1716C28.269 9.61216 27.5563 9.2312 26.7803 9.07686C26.0044 8.92252 25.2002 9.00173 24.4692 9.30448C23.7383 9.60723 23.1136 10.1199 22.6741 10.7777C22.2346 11.4355 22 12.2089 22 13C22 14.0609 22.4214 15.0783 23.1716 15.8284C23.9217 16.5786 24.9391 17 26 17ZM26 11C26.3955 11 26.7822 11.1173 27.1111 11.3371C27.44 11.5568 27.6964 11.8692 27.8477 12.2346C27.9991 12.6001 28.0387 13.0022 27.9616 13.3902C27.8844 13.7781 27.6939 14.1345 27.4142 14.4142C27.1345 14.6939 26.7781 14.8844 26.3902 14.9616C26.0022 15.0387 25.6001 14.9991 25.2346 14.8478C24.8692 14.6964 24.5568 14.44 24.337 14.1111C24.1173 13.7822 24 13.3956 24 13C24 12.4696 24.2107 11.9609 24.5858 11.5858C24.9608 11.2107 25.4696 11 26 11ZM34.4137 23.585C34.3375 23.62 33.4775 23.995 31.955 23.995C30.2237 23.995 27.6362 23.51 24.3687 21.495C23.8714 22.9068 23.2257 24.2619 22.4425 25.5375C23.8493 25.9706 25.1726 26.6388 26.3562 27.5138C28.74 29.3312 30 31.9188 30 35C30 35.2652 29.8946 35.5196 29.7071 35.7071C29.5196 35.8946 29.2652 36 29 36C28.7348 36 28.4804 35.8946 28.2929 35.7071C28.1053 35.5196 28 35.2652 28 35C28 29.7875 23.6637 27.9113 21.2325 27.2688C21.1637 27.3563 21.0925 27.445 21.0212 27.5312C18.5662 30.5063 15.49 32.0538 12.0675 32.0538C11.6777 32.0556 11.288 32.0377 10.9 32C10.6348 31.9735 10.391 31.8427 10.2222 31.6364C10.0534 31.4301 9.97346 31.1652 9.99999 30.9C10.0265 30.6348 10.1573 30.391 10.3636 30.2222C10.5699 30.0534 10.8348 29.9735 11.1 30C14.34 30.3225 17.1587 29.0638 19.475 26.25C21.0362 24.3575 22.1 22.0488 22.6312 20.375C17.7662 17.5438 14.6587 19.9538 14.625 19.98C14.5231 20.067 14.4048 20.1326 14.2771 20.173C14.1494 20.2134 14.0149 20.2277 13.8815 20.2151C13.7481 20.2025 13.6187 20.1632 13.5008 20.0996C13.3829 20.036 13.279 19.9494 13.1952 19.8448C13.1115 19.7403 13.0496 19.62 13.0132 19.4911C12.9768 19.3622 12.9667 19.2273 12.9835 19.0944C13.0002 18.9615 13.0435 18.8333 13.1108 18.7175C13.178 18.6016 13.2679 18.5005 13.375 18.42C13.5625 18.27 18.0275 14.795 24.5637 19.2413C30.2475 23.105 33.555 21.78 33.5862 21.765C33.706 21.7084 33.8359 21.6762 33.9682 21.6703C34.1006 21.6643 34.2328 21.6847 34.3572 21.7303C34.4816 21.7758 34.5958 21.8457 34.6929 21.9357C34.7901 22.0258 34.8684 22.1342 34.9234 22.2548C34.9783 22.3754 35.0087 22.5057 35.0128 22.6381C35.0169 22.7705 34.9947 22.9025 34.9474 23.0262C34.9001 23.15 34.8286 23.2631 34.7373 23.359C34.6459 23.455 34.5363 23.5318 34.415 23.585H34.4137Z" fill="white"/>
</svg>
