<svg width="45" height="45" viewBox="0 0 45 45" fill="none" xmlns="http://www.w3.org/2000/svg">
<circle cx="22.5" cy="22.5" r="22.5" fill="#563428"/>
<g clip-path="url(#clip0_206_2022)">
<path fill-rule="evenodd" clip-rule="evenodd" d="M23.4783 13.2619C24.2907 12.3776 25.393 11.8137 26.5854 11.6725C27.7778 11.5312 28.9814 11.8219 29.9778 12.4919L30.1878 12.6412L30.5647 12.9235C31.0788 13.309 31.5027 13.8018 31.807 14.3678C32.1112 14.9338 32.2885 15.5593 32.3263 16.2007L32.3333 16.4609V33.5C32.333 33.7974 32.2192 34.0834 32.015 34.2996C31.8109 34.5159 31.5319 34.646 31.2351 34.6634C30.9382 34.6808 30.6459 34.5842 30.4179 34.3934C30.1898 34.2025 30.0433 33.9318 30.0082 33.6365L30 33.5V16.4609C29.9994 16.1699 29.9383 15.8822 29.8206 15.6161C29.7029 15.35 29.5312 15.1113 29.3163 14.915L29.1647 14.7902L28.7878 14.5079C28.3577 14.1844 27.8402 13.9977 27.3026 13.9721C26.765 13.9465 26.2321 14.0832 25.7732 14.3644L25.5947 14.4845L26.479 14.9955C27.5137 15.5928 28.28 16.5642 28.6199 17.7095C28.9598 18.8549 28.8474 20.087 28.306 21.152L28.187 21.3702L27.6037 22.3805C27.4607 22.6278 27.2319 22.8141 26.9608 22.904C26.6896 22.9938 26.3949 22.9811 26.1325 22.8682L26.01 22.8075L15.9067 16.9742C15.6591 16.8312 15.4727 16.6022 15.3828 16.3308C15.2929 16.0594 15.3058 15.7644 15.419 15.5019L15.4797 15.3805L16.063 14.3702C16.6603 13.3355 17.6317 12.5692 18.777 12.2293C19.9224 11.8894 21.1545 12.0018 22.2195 12.5432L22.4377 12.6622L23.4783 13.2619ZM16.875 26.9632C17.143 27.1179 17.3385 27.3727 17.4186 27.6716C17.4986 27.9705 17.4567 28.2889 17.302 28.5569L16.7187 29.5672C16.6426 29.7009 16.5409 29.8183 16.4193 29.9126C16.2977 30.0069 16.1586 30.0762 16.0102 30.1165C15.8617 30.1568 15.7067 30.1673 15.5541 30.1475C15.4015 30.1277 15.2544 30.0779 15.1211 30.0009C14.9879 29.924 14.8712 29.8215 14.7777 29.6992C14.6843 29.577 14.6159 29.4375 14.5766 29.2888C14.5372 29.14 14.5277 28.985 14.5486 28.8325C14.5694 28.6801 14.6202 28.5333 14.698 28.4005L15.2813 27.3902C15.4361 27.1222 15.6909 26.9267 15.9897 26.8466C16.2886 26.7666 16.6071 26.8085 16.875 26.9632ZM19.479 27.1195C19.6269 26.8598 19.8688 26.6668 20.1548 26.5802C20.4408 26.4936 20.7492 26.52 21.0163 26.6541C21.2833 26.7882 21.4888 27.0196 21.5902 27.3007C21.6917 27.5818 21.6814 27.8911 21.5615 28.1649L21.4997 28.2862L20.9163 29.2965C20.7672 29.5536 20.5255 29.7441 20.2406 29.829C19.9558 29.914 19.6492 29.887 19.3836 29.7536C19.118 29.6202 18.9133 29.3904 18.8113 29.1112C18.7094 28.832 18.7179 28.5244 18.835 28.2512L18.8957 28.1299L19.479 27.1195ZM15.0107 23.1925C15.2786 23.3472 15.4742 23.6021 15.5542 23.9009C15.6343 24.1998 15.5924 24.5182 15.4377 24.7862L14.8543 25.7965C14.6985 26.0623 14.4439 26.2557 14.1461 26.3344C13.8482 26.4132 13.5313 26.3709 13.2645 26.2169C12.9977 26.0628 12.8027 25.8095 12.722 25.5122C12.6413 25.2149 12.6814 24.8977 12.8337 24.6299L13.417 23.6195C13.5717 23.3516 13.8265 23.1561 14.1254 23.076C14.4243 22.9959 14.7427 23.0378 15.0107 23.1925ZM19.2083 22.9219C19.4763 23.0766 19.6718 23.3314 19.7519 23.6303C19.832 23.9291 19.79 24.2476 19.6353 24.5155L19.052 25.5259C18.976 25.6596 18.8742 25.777 18.7526 25.8713C18.631 25.9655 18.492 26.0348 18.3435 26.0751C18.195 26.1155 18.04 26.126 17.8874 26.1062C17.7349 26.0863 17.5877 26.0365 17.4545 25.9596C17.3212 25.8827 17.2045 25.7801 17.111 25.6579C17.0176 25.5357 16.9492 25.3962 16.9099 25.2474C16.8706 25.0987 16.8611 24.9436 16.8819 24.7912C16.9027 24.6387 16.9535 24.4919 17.0313 24.3592L17.6147 23.3489C17.7694 23.0809 18.0242 22.8854 18.3231 22.8053C18.6219 22.7252 18.9404 22.7672 19.2083 22.9219ZM21.8123 23.0782C21.9607 22.8198 22.2024 22.6279 22.4878 22.542C22.7732 22.4561 23.0806 22.4827 23.347 22.6162C23.6134 22.7498 23.8186 22.9803 23.9205 23.2603C24.0223 23.5404 24.0132 23.8488 23.8948 24.1224L23.833 24.2449L23.2497 25.2552C23.1005 25.5123 22.8588 25.7028 22.574 25.7877C22.2891 25.8727 21.9826 25.8457 21.717 25.7123C21.4513 25.5789 21.2466 25.3491 21.1447 25.0699C21.0427 24.7907 21.0512 24.483 21.1683 24.2099L21.229 24.0885L21.8123 23.0782ZM17.344 19.15C17.612 19.3047 17.8075 19.5596 17.8876 19.8584C17.9676 20.1573 17.9257 20.4757 17.771 20.7437L17.1877 21.754C17.0319 22.0198 16.7773 22.2132 16.4794 22.2919C16.1816 22.3707 15.8647 22.3284 15.5979 22.1744C15.3311 22.0203 15.136 21.767 15.0553 21.4697C14.9746 21.1724 15.0147 20.8552 15.167 20.5874L15.7503 19.577C15.9051 19.3091 16.1599 19.1136 16.4587 19.0335C16.7576 18.9534 17.0761 18.9953 17.344 19.15ZM18.0837 15.5357L26.1663 20.2024C26.4758 19.6664 26.5596 19.0296 26.3994 18.4318C26.2393 17.8341 25.8483 17.3245 25.3123 17.015L21.271 14.6817C20.7351 14.3723 20.0982 14.2884 19.5005 14.4486C18.9027 14.6088 18.3931 14.9998 18.0837 15.5357Z" fill="white"/>
</g>
<defs>
<clipPath id="clip0_206_2022">
<rect width="28" height="28" fill="white" transform="translate(9 9)"/>
</clipPath>
</defs>
</svg>
