<svg width="45" height="45" viewBox="0 0 45 45" fill="none" xmlns="http://www.w3.org/2000/svg">
<circle cx="22.5" cy="22.5" r="22.25" fill="white" stroke="#D3D3D3" stroke-width="0.5"/>
<g clip-path="url(#clip0_477_2454)">
<path fill-rule="evenodd" clip-rule="evenodd" d="M23.4783 13.2619C24.2906 12.3776 25.3929 11.8137 26.5853 11.6725C27.7778 11.5312 28.9813 11.8219 29.9778 12.4919L30.1878 12.6412L30.5646 12.9235C31.0787 13.309 31.5027 13.8018 31.8069 14.3678C32.1112 14.9338 32.2884 15.5593 32.3263 16.2007L32.3333 16.4609V33.5C32.333 33.7974 32.2191 34.0834 32.015 34.2996C31.8108 34.5159 31.5318 34.646 31.235 34.6634C30.9381 34.6808 30.6458 34.5842 30.4178 34.3934C30.1898 34.2025 30.0432 33.9318 30.0081 33.6365L30 33.5V16.4609C29.9993 16.1699 29.9382 15.8822 29.8205 15.6161C29.7028 15.35 29.5311 15.1113 29.3163 14.915L29.1646 14.7902L28.7878 14.5079C28.3576 14.1844 27.8401 13.9977 27.3025 13.9721C26.7649 13.9465 26.232 14.0832 25.7731 14.3644L25.5946 14.4845L26.479 14.9955C27.5137 15.5928 28.2799 16.5642 28.6198 17.7095C28.9597 18.8549 28.8474 20.087 28.306 21.152L28.187 21.3702L27.6036 22.3805C27.4606 22.6278 27.2319 22.8141 26.9607 22.904C26.6896 22.9938 26.3949 22.9811 26.1325 22.8682L26.01 22.8075L15.9066 16.9742C15.659 16.8312 15.4726 16.6022 15.3827 16.3308C15.2928 16.0594 15.3057 15.7644 15.419 15.5019L15.4796 15.3805L16.063 14.3702C16.6602 13.3355 17.6316 12.5692 18.777 12.2293C19.9223 11.8894 21.1544 12.0018 22.2195 12.5432L22.4376 12.6622L23.4783 13.2619ZM16.875 26.9632C17.1429 27.1179 17.3384 27.3727 17.4185 27.6716C17.4986 27.9705 17.4567 28.2889 17.302 28.5569L16.7186 29.5672C16.6426 29.7009 16.5408 29.8183 16.4192 29.9126C16.2976 30.0069 16.1586 30.0762 16.0101 30.1165C15.8616 30.1568 15.7066 30.1673 15.554 30.1475C15.4015 30.1277 15.2543 30.0779 15.1211 30.0009C14.9878 29.924 14.8711 29.8215 14.7777 29.6992C14.6842 29.577 14.6158 29.4375 14.5765 29.2888C14.5372 29.14 14.5277 28.985 14.5485 28.8325C14.5693 28.6801 14.6201 28.5333 14.698 28.4005L15.2813 27.3902C15.436 27.1222 15.6908 26.9267 15.9897 26.8466C16.2886 26.7666 16.607 26.8085 16.875 26.9632ZM19.479 27.1195C19.6268 26.8598 19.8687 26.6668 20.1547 26.5802C20.4408 26.4936 20.7491 26.52 21.0162 26.6541C21.2833 26.7882 21.4887 27.0196 21.5902 27.3007C21.6916 27.5818 21.6814 27.8911 21.5615 28.1649L21.4996 28.2862L20.9163 29.2965C20.7671 29.5536 20.5254 29.7441 20.2406 29.829C19.9557 29.914 19.6492 29.887 19.3836 29.7536C19.1179 29.6202 18.9132 29.3904 18.8113 29.1112C18.7093 28.832 18.7178 28.5244 18.835 28.2512L18.8956 28.1299L19.479 27.1195ZM15.0106 23.1925C15.2786 23.3472 15.4741 23.6021 15.5542 23.9009C15.6342 24.1998 15.5923 24.5182 15.4376 24.7862L14.8543 25.7965C14.6985 26.0623 14.4439 26.2557 14.146 26.3344C13.8482 26.4132 13.5313 26.3709 13.2645 26.2169C12.9977 26.0628 12.8026 25.8095 12.7219 25.5122C12.6412 25.2149 12.6813 24.8977 12.8336 24.6299L13.417 23.6195C13.5717 23.3516 13.8265 23.1561 14.1254 23.076C14.4242 22.9959 14.7427 23.0378 15.0106 23.1925ZM19.2083 22.9219C19.4762 23.0766 19.6718 23.3314 19.7518 23.6303C19.8319 23.9291 19.79 24.2476 19.6353 24.5155L19.052 25.5259C18.9759 25.6596 18.8742 25.777 18.7526 25.8713C18.631 25.9655 18.4919 26.0348 18.3434 26.0751C18.1949 26.1155 18.0399 26.126 17.8874 26.1062C17.7348 26.0863 17.5876 26.0365 17.4544 25.9596C17.3212 25.8827 17.2044 25.7801 17.111 25.6579C17.0175 25.5357 16.9492 25.3962 16.9098 25.2474C16.8705 25.0987 16.861 24.9436 16.8818 24.7912C16.9027 24.6387 16.9535 24.4919 17.0313 24.3592L17.6146 23.3489C17.7693 23.0809 18.0242 22.8854 18.323 22.8053C18.6219 22.7252 18.9403 22.7672 19.2083 22.9219ZM21.8123 23.0782C21.9607 22.8198 22.2024 22.6279 22.4877 22.542C22.7731 22.4561 23.0805 22.4827 23.3469 22.6162C23.6133 22.7498 23.8185 22.9803 23.9204 23.2603C24.0223 23.5404 24.0131 23.8488 23.8948 24.1224L23.833 24.2449L23.2496 25.2552C23.1004 25.5123 22.8588 25.7028 22.5739 25.7877C22.2891 25.8727 21.9825 25.8457 21.7169 25.7123C21.4513 25.5789 21.2466 25.3491 21.1446 25.0699C21.0427 24.7907 21.0511 24.483 21.1683 24.2099L21.229 24.0885L21.8123 23.0782ZM17.344 19.15C17.6119 19.3047 17.8074 19.5596 17.8875 19.8584C17.9676 20.1573 17.9257 20.4757 17.771 20.7437L17.1876 21.754C17.0318 22.0198 16.7772 22.2132 16.4794 22.2919C16.1815 22.3707 15.8646 22.3284 15.5978 22.1744C15.331 22.0203 15.136 21.767 15.0552 21.4697C14.9745 21.1724 15.0147 20.8552 15.167 20.5874L15.7503 19.577C15.905 19.3091 16.1598 19.1136 16.4587 19.0335C16.7576 18.9534 17.076 18.9953 17.344 19.15ZM18.0836 15.5357L26.1663 20.2024C26.4757 19.6664 26.5595 19.0296 26.3994 18.4318C26.2392 17.8341 25.8482 17.3245 25.3123 17.015L21.271 14.6817C20.735 14.3723 20.0982 14.2884 19.5004 14.4486C18.9027 14.6088 18.393 14.9998 18.0836 15.5357Z" fill="#FFC328"/>
</g>
<defs>
<clipPath id="clip0_477_2454">
<rect width="28" height="28" fill="white" transform="translate(9 9)"/>
</clipPath>
</defs>
</svg>
