<svg width="71" height="71" viewBox="0 0 71 71" fill="none" xmlns="http://www.w3.org/2000/svg">
<path d="M35.5 0.96875C28.6704 0.96875 21.9941 2.99397 16.3155 6.78831C10.6368 10.5827 6.21089 15.9757 3.5973 22.2855C0.983712 28.5952 0.299878 35.5383 1.63227 42.2367C2.96467 48.9351 6.25345 55.088 11.0827 59.9173C15.912 64.7466 22.0649 68.0353 28.7633 69.3677C35.4617 70.7001 42.4048 70.0163 48.7146 67.4027C55.0243 64.7891 60.4174 60.3632 64.2117 54.6845C68.006 49.0059 70.0313 42.3296 70.0313 35.5C70.0198 26.3452 66.3781 17.5687 59.9047 11.0953C53.4313 4.62194 44.6548 0.980172 35.5 0.96875ZM48.7813 38.1562H38.1563V48.7812C38.1563 49.4857 37.8764 50.1614 37.3783 50.6595C36.8801 51.1576 36.2045 51.4375 35.5 51.4375C34.7955 51.4375 34.1199 51.1576 33.6218 50.6595C33.1236 50.1614 32.8438 49.4857 32.8438 48.7812V38.1562H22.2188C21.5143 38.1562 20.8387 37.8764 20.3405 37.3783C19.8424 36.8801 19.5625 36.2045 19.5625 35.5C19.5625 34.7955 19.8424 34.1199 20.3405 33.6217C20.8387 33.1236 21.5143 32.8438 22.2188 32.8438H32.8438V22.2188C32.8438 21.5143 33.1236 20.8386 33.6218 20.3405C34.1199 19.8424 34.7955 19.5625 35.5 19.5625C36.2045 19.5625 36.8801 19.8424 37.3783 20.3405C37.8764 20.8386 38.1563 21.5143 38.1563 22.2188V32.8438H48.7813C49.4857 32.8438 50.1614 33.1236 50.6595 33.6217C51.1577 34.1199 51.4375 34.7955 51.4375 35.5C51.4375 36.2045 51.1577 36.8801 50.6595 37.3783C50.1614 37.8764 49.4857 38.1562 48.7813 38.1562Z" fill="#FFC328"/>
</svg>
