<svg width="90" height="90" viewBox="0 0 90 90" fill="none" xmlns="http://www.w3.org/2000/svg">
<g filter="url(#filter0_d_598_2515)">
<circle cx="45" cy="41" r="30" fill="#151515"/>
<path fill-rule="evenodd" clip-rule="evenodd" d="M59.319 30.6666C59.7409 31.0885 59.9778 31.6607 59.9778 32.2573C59.9778 32.854 59.7409 33.4262 59.319 33.8481L42.4545 50.7126C42.2317 50.9355 41.9671 51.1123 41.6759 51.233C41.3846 51.3536 41.0725 51.4157 40.7573 51.4157C40.4421 51.4157 40.1299 51.3536 39.8387 51.233C39.5475 51.1123 39.2829 50.9355 39.06 50.7126L30.681 42.3351C30.4661 42.1275 30.2947 41.8793 30.1768 41.6048C30.0589 41.3303 29.9968 41.035 29.9942 40.7363C29.9916 40.4375 30.0486 40.1412 30.1617 39.8647C30.2748 39.5882 30.4419 39.337 30.6532 39.1257C30.8644 38.9145 31.1156 38.7474 31.3921 38.6343C31.6687 38.5211 31.9649 38.4642 32.2637 38.4668C32.5624 38.4694 32.8577 38.5315 33.1322 38.6494C33.4067 38.7673 33.655 38.9387 33.8625 39.1536L40.7565 46.0476L56.136 30.6666C56.345 30.4575 56.5931 30.2917 56.8662 30.1785C57.1392 30.0653 57.4319 30.0071 57.7275 30.0071C58.0231 30.0071 58.3158 30.0653 58.5889 30.1785C58.862 30.2917 59.1101 30.4575 59.319 30.6666Z" fill="white"/>
<mask id="mask0_598_2515" style="mask-type:luminance" maskUnits="userSpaceOnUse" x="17" y="13" width="56" height="56">
<path d="M45 66C48.2837 66.0043 51.5358 65.3596 54.5695 64.1029C57.6032 62.8463 60.3587 61.0025 62.6775 58.6775C65.0025 56.3587 66.8463 53.6032 68.1029 50.5695C69.3596 47.5358 70.0043 44.2837 70 41C70.0042 37.7164 69.3595 34.4642 68.1028 31.4306C66.8462 28.3969 65.0024 25.6414 62.6775 23.3225C60.3587 20.9976 57.6032 19.1538 54.5695 17.8971C51.5358 16.6405 48.2837 15.9958 45 16C41.7164 15.9958 38.4642 16.6406 35.4306 17.8972C32.3969 19.1539 29.6414 20.9976 27.3225 23.3225C24.9976 25.6414 23.1539 28.3969 21.8972 31.4306C20.6406 34.4642 19.9958 37.7164 20 41C19.9958 44.2837 20.6405 47.5358 21.8971 50.5695C23.1538 53.6032 24.9976 56.3587 27.3225 58.6775C29.6414 61.0024 32.3969 62.8462 35.4306 64.1028C38.4642 65.3595 41.7164 66.0042 45 66Z" fill="white" stroke="white" stroke-width="5" stroke-linejoin="round"/>
<path d="M35 41L42.5 48.5L57.5 33.5" stroke="black" stroke-width="5" stroke-linecap="round" stroke-linejoin="round"/>
</mask>
<g mask="url(#mask0_598_2515)">
</g>
</g>
<defs>
<filter id="filter0_d_598_2515" x="0" y="0" width="90" height="90" filterUnits="userSpaceOnUse" color-interpolation-filters="sRGB">
<feFlood flood-opacity="0" result="BackgroundImageFix"/>
<feColorMatrix in="SourceAlpha" type="matrix" values="0 0 0 0 0 0 0 0 0 0 0 0 0 0 0 0 0 0 127 0" result="hardAlpha"/>
<feOffset dy="4"/>
<feGaussianBlur stdDeviation="7.5"/>
<feComposite in2="hardAlpha" operator="out"/>
<feColorMatrix type="matrix" values="0 0 0 0 0 0 0 0 0 0 0 0 0 0 0 0 0 0 0.35 0"/>
<feBlend mode="normal" in2="BackgroundImageFix" result="effect1_dropShadow_598_2515"/>
<feBlend mode="normal" in="SourceGraphic" in2="effect1_dropShadow_598_2515" result="shape"/>
</filter>
</defs>
</svg>
