<svg width="30" height="30" viewBox="0 0 30 30" fill="none" xmlns="http://www.w3.org/2000/svg">
<path d="M28.125 14.9999C28.128 15.3844 28.0111 15.7603 27.7906 16.0753C27.57 16.3904 27.2568 16.6289 26.8945 16.7577L19.4601 19.4612L16.7578 26.8944C16.6246 27.2532 16.3848 27.5627 16.0706 27.7812C15.7563 27.9998 15.3827 28.1169 15 28.1169C14.6172 28.1169 14.2437 27.9998 13.9294 27.7812C13.6152 27.5627 13.3754 27.2532 13.2422 26.8944L10.5398 19.46L3.10546 16.7577C2.74663 16.6245 2.43716 16.3847 2.21861 16.0704C2.00007 15.7562 1.88293 15.3826 1.88293 14.9999C1.88293 14.6171 2.00007 14.2435 2.21861 13.9293C2.43716 13.6151 2.74663 13.3753 3.10546 13.2421L10.5398 10.5397L13.2422 3.10534C13.3754 2.74651 13.6152 2.43703 13.9294 2.21849C14.2437 1.99995 14.6172 1.88281 15 1.88281C15.3827 1.88281 15.7563 1.99995 16.0706 2.21849C16.3848 2.43703 16.6246 2.74651 16.7578 3.10534L19.4613 10.5397L26.8945 13.2421C27.2568 13.3709 27.57 13.6094 27.7906 13.9244C28.0111 14.2394 28.128 14.6153 28.125 14.9999Z" fill="#FF7C7C"/>
</svg>
