<svg width="30" height="30" viewBox="0 0 30 30" fill="none" xmlns="http://www.w3.org/2000/svg">
<path d="M26.2503 12.9492L19.5041 10.4959L17.0508 3.74966C16.8978 3.32864 16.6189 2.96492 16.252 2.70789C15.8851 2.45086 15.448 2.31299 15 2.31299C14.552 2.31299 14.1149 2.45086 13.748 2.70789C13.3811 2.96492 13.1022 3.32864 12.9492 3.74966L10.4959 10.4959L3.74969 12.9492C3.32867 13.1022 2.96495 13.3811 2.70792 13.748C2.45089 14.1149 2.31302 14.552 2.31302 15C2.31302 15.4479 2.45089 15.8851 2.70792 16.2519C2.96495 16.6188 3.32867 16.8977 3.74969 17.0508L10.4959 19.504L12.9492 26.2503C13.1022 26.6713 13.3811 27.035 13.748 27.2921C14.1149 27.5491 14.552 27.687 15 27.687C15.448 27.687 15.8851 27.5491 16.252 27.2921C16.6189 27.035 16.8978 26.6713 17.0508 26.2503L19.5041 19.504L26.2503 17.0508C26.6713 16.8977 27.0351 16.6188 27.2921 16.2519C27.5491 15.8851 27.687 15.4479 27.687 15C27.687 14.552 27.5491 14.1149 27.2921 13.748C27.0351 13.3811 26.6713 13.1022 26.2503 12.9492ZM18.0319 17.2465C17.8515 17.3121 17.6878 17.4164 17.5521 17.552C17.4164 17.6877 17.3121 17.8515 17.2466 18.0318L15 24.2104L12.7534 18.0318C12.6879 17.8515 12.5836 17.6877 12.4479 17.552C12.3123 17.4164 12.1485 17.3121 11.9681 17.2465L5.78954 15L11.9681 12.7534C12.1485 12.6879 12.3123 12.5836 12.4479 12.4479C12.5836 12.3122 12.6879 12.1484 12.7534 11.9681L15 5.78951L17.2466 11.9681C17.3121 12.1484 17.4164 12.3122 17.5521 12.4479C17.6878 12.5836 17.8515 12.6879 18.0319 12.7534L24.2105 15L18.0319 17.2465Z" fill="#FF7C7C"/>
</svg>
