<svg width="25" height="25" viewBox="0 0 25 25" fill="none" xmlns="http://www.w3.org/2000/svg">
<g clip-path="url(#clip0_278_1957)">
<path fill-rule="evenodd" clip-rule="evenodd" d="M9.22664 0.437747C11.6849 -0.229717 14.2883 -0.130239 16.6885 0.722862C19.0886 1.57596 21.1708 3.14196 22.6563 5.21118V2.73462C22.6563 2.42382 22.7798 2.12575 22.9996 1.90598C23.2193 1.68621 23.5174 1.56275 23.8282 1.56275C24.139 1.56275 24.4371 1.68621 24.6568 1.90598C24.8766 2.12575 25.0001 2.42382 25.0001 2.73462V9.37525H18.3595C18.0487 9.37525 17.7506 9.25178 17.5308 9.03201C17.311 8.81224 17.1876 8.51417 17.1876 8.20337C17.1876 7.89257 17.311 7.5945 17.5308 7.37473C17.7506 7.15496 18.0487 7.0315 18.3595 7.0315H21.0579C19.8339 5.11663 18.0031 3.66761 15.8583 2.91623C13.7135 2.16486 11.3787 2.15455 9.22729 2.88696C7.07593 3.61937 5.23239 5.05217 3.99157 6.95615C2.75075 8.86013 2.18438 11.1253 2.38304 13.3892C2.58171 15.6531 3.53395 17.7849 5.08741 19.4437C6.64087 21.1025 8.70579 22.1923 10.9518 22.5388C13.1979 22.8853 15.4952 22.4685 17.4764 21.3551C19.4576 20.2416 21.008 18.4959 21.8798 16.3971C21.9363 16.2516 22.0214 16.1189 22.13 16.0067C22.2386 15.8946 22.3686 15.8052 22.5122 15.744C22.6558 15.6827 22.8102 15.6508 22.9663 15.65C23.1224 15.6493 23.2771 15.6797 23.4213 15.7396C23.5655 15.7994 23.6963 15.8875 23.8059 15.9986C23.9156 16.1097 24.002 16.2416 24.06 16.3866C24.118 16.5315 24.1464 16.6866 24.1436 16.8427C24.1409 16.9988 24.1069 17.1528 24.0438 17.2956C23.2295 19.2558 21.9293 20.9763 20.266 22.295C18.6027 23.6137 16.631 24.4871 14.5367 24.8329C12.4424 25.1787 10.2945 24.9855 8.29559 24.2714C6.29664 23.5574 4.51244 22.3461 3.11118 20.7517C1.70992 19.1574 0.737759 17.2324 0.286327 15.1583C-0.165104 13.0842 -0.0809302 10.9293 0.530914 8.89679C1.14276 6.86425 2.26212 5.02098 3.78348 3.54076C5.30484 2.06053 7.17809 0.993663 9.22664 0.437747Z" fill="#454545"/>
</g>
<defs>
<clipPath id="clip0_278_1957">
<rect width="25" height="25" fill="white"/>
</clipPath>
</defs>
</svg>
