<svg width="30" height="30" viewBox="0 0 30 30" fill="none" xmlns="http://www.w3.org/2000/svg">
<g clip-path="url(#clip0_268_1941)">
<g filter="url(#filter0_d_268_1941)">
<path fill-rule="evenodd" clip-rule="evenodd" d="M15 0.59375C14.5777 0.593937 14.1642 0.714079 13.8076 0.940185C13.451 1.16629 13.166 1.48906 12.9857 1.87089L9.58286 8.73875C9.57386 8.75495 9.56528 8.77139 9.55714 8.78804C9.54065 8.7905 9.52421 8.79336 9.50786 8.79661L2.01428 9.90661C1.58931 9.94786 1.18512 10.1103 0.849827 10.3747C0.51453 10.6391 0.262233 10.9942 0.122952 11.3978C-0.0163285 11.8014 -0.0367292 12.2365 0.0641771 12.6514C0.165083 13.0663 0.383049 13.4435 0.692142 13.738L6.17786 19.0287L6.19071 19.0395C6.19847 19.0468 6.20429 19.0559 6.20765 19.066C6.21102 19.0761 6.21183 19.0868 6.21 19.0973V19.1059L4.90286 26.7516C4.83111 27.1661 4.87701 27.5946 5.03537 27.9844C5.19372 28.3741 5.45817 28.7117 5.79871 28.9587C6.13924 29.2058 6.54221 29.3524 6.96187 29.3819C7.38153 29.4115 7.80107 29.3228 8.17286 29.1259L14.9229 25.558C14.9472 25.5474 14.9734 25.5419 15 25.5419C15.0265 25.5419 15.0528 25.5474 15.0771 25.558L21.8271 29.1237C22.1987 29.3219 22.6185 29.4117 23.0387 29.3829C23.4588 29.3541 23.8624 29.2079 24.2035 28.9608C24.5446 28.7138 24.8094 28.3759 24.9678 27.9857C25.1261 27.5955 25.1717 27.1686 25.0993 26.7537L23.7921 19.1037V19.0973C23.7879 19.0887 23.79 19.0759 23.7921 19.0673C23.7954 19.0567 23.8013 19.0471 23.8093 19.0395L23.8221 19.0287L29.3057 13.7359C29.6141 13.4412 29.8315 13.0642 29.932 12.6497C30.0325 12.2351 30.012 11.8004 29.8727 11.3972C29.7335 10.994 29.4815 10.6392 29.1466 10.375C28.8118 10.1108 28.4081 9.94821 27.9836 9.90661L20.4921 8.79661C20.4758 8.79336 20.4594 8.7905 20.4429 8.78804C20.4347 8.77139 20.4261 8.75495 20.4171 8.73875L17.0143 1.87089C16.834 1.48906 16.549 1.16629 16.1924 0.940185C15.8358 0.714079 15.4222 0.593937 15 0.59375Z" fill="#FFC328"/>
</g>
</g>
<defs>
<filter id="filter0_d_268_1941" x="-6.99895" y="-4.40625" width="43.9937" height="42.7944" filterUnits="userSpaceOnUse" color-interpolation-filters="sRGB">
<feFlood flood-opacity="0" result="BackgroundImageFix"/>
<feColorMatrix in="SourceAlpha" type="matrix" values="0 0 0 0 0 0 0 0 0 0 0 0 0 0 0 0 0 0 127 0" result="hardAlpha"/>
<feMorphology radius="1" operator="dilate" in="SourceAlpha" result="effect1_dropShadow_268_1941"/>
<feOffset dy="2"/>
<feGaussianBlur stdDeviation="3"/>
<feComposite in2="hardAlpha" operator="out"/>
<feColorMatrix type="matrix" values="0 0 0 0 0.855512 0 0 0 0 0.785075 0 0 0 0 0.720056 0 0 0 0.25 0"/>
<feBlend mode="normal" in2="BackgroundImageFix" result="effect1_dropShadow_268_1941"/>
<feBlend mode="normal" in="SourceGraphic" in2="effect1_dropShadow_268_1941" result="shape"/>
</filter>
<clipPath id="clip0_268_1941">
<rect width="30" height="30" fill="white"/>
</clipPath>
</defs>
</svg>
