<svg width="25" height="25" viewBox="0 0 25 25" fill="none" xmlns="http://www.w3.org/2000/svg">
<path fill-rule="evenodd" clip-rule="evenodd" d="M14.3656 7.8125L14.9141 9.17656L16.3828 9.27656L21.3781 9.61562L17.5344 12.8266L16.4063 13.7687L16.7656 15.1969L17.9875 20.0531L13.7469 17.3906L12.5 16.6078L11.2531 17.3891L7.01251 20.0531L8.23439 15.1969L8.59376 13.7687L7.46407 12.8266L3.62032 9.61562L8.6172 9.27656L10.0859 9.17656L10.6328 7.81094L12.5 3.16406L14.3656 7.8125ZM2.29845 7.35625L8.45939 6.9375L10.7594 1.20781C11.3906 -0.360937 13.6094 -0.360937 14.2406 1.20781L16.5406 6.9375L22.7016 7.35625C24.3891 7.47031 25.0734 9.58125 23.7766 10.6656L19.0391 14.625L20.5453 20.6125C20.9578 22.2531 19.1609 23.5562 17.7297 22.6594L12.5 19.375L7.27032 22.6578C5.83907 23.5562 4.0422 22.2516 4.4547 20.6125L5.96095 14.625L1.22345 10.6656C-0.073426 9.58125 0.612511 7.47031 2.29845 7.35625Z" fill="#FFC328"/>
</svg>
